<svg xmlns="http://www.w3.org/2000/svg" width="280" height="220" viewBox="0 0 400 300" fill="none">
  <style>
    @keyframes float {
      0%, 100% { transform: translateY(0); }
      50% { transform: translateY(-8px); }
    }
    @keyframes pulse {
      0%, 100% { opacity: 0.8; }
      50% { opacity: 1; }
    }
    @keyframes draw {
      to { stroke-dashoffset: 0; }
    }
    @keyframes fadeIn {
      from { opacity: 0; }
      to { opacity: 1; }
    }
    @keyframes rotate {
      from { transform: rotate(0deg); }
      to { transform: rotate(360deg); }
    }
    @keyframes scale {
      0%, 100% { transform: scale(1); }
      50% { transform: scale(1.1); }
    }
    .float { animation: float 6s ease-in-out infinite; }
    .float-delay-1 { animation: float 6s ease-in-out 0.5s infinite; }
    .float-delay-2 { animation: float 6s ease-in-out 1s infinite; }
    .pulse { animation: pulse 3s ease-in-out infinite; }
    .fade-in { 
      opacity: 0;
      animation: fadeIn 0.8s ease-out forwards;
    }
    .fade-in-delay-1 {
      opacity: 0;
      animation: fadeIn 0.8s ease-out 0.3s forwards;
    }
    .fade-in-delay-2 {
      opacity: 0;
      animation: fadeIn 0.8s ease-out 0.6s forwards;
    }
    .draw { 
      stroke-dasharray: 100;
      stroke-dashoffset: 100;
      animation: draw 1.5s ease-in-out forwards;
    }
    .rotate {
      transform-origin: 200px 150px;
      animation: rotate 20s linear infinite;
    }
    .scale {
      animation: scale 3s ease-in-out infinite;
    }
  </style>
  
  <!-- Background elements -->
  <circle cx="200" cy="150" r="120" fill="rgba(255,255,255,0.1)" class="pulse" />
  <g class="rotate" opacity="0.15">
    <circle cx="200" cy="150" r="100" fill="none" stroke="white" stroke-width="1" />
    <circle cx="200" cy="150" r="80" fill="none" stroke="white" stroke-width="1" />
    <circle cx="200" cy="150" r="60" fill="none" stroke="white" stroke-width="1" />
  </g>
  <circle cx="120" cy="80" r="6" fill="rgba(255,255,255,0.4)" class="float" />
  <circle cx="280" cy="220" r="4" fill="rgba(255,255,255,0.4)" class="float-delay-1" />
  <circle cx="260" cy="90" r="5" fill="rgba(255,255,255,0.4)" class="float-delay-2" />
  
  <!-- User/profile icon -->
  <g class="float fade-in">
    <circle cx="200" cy="110" r="35" fill="white" />
    <circle cx="200" cy="95" r="15" fill="#4A6CF7" />
    <path d="M165 150 C165 120, 235 120, 235 150" fill="#4A6CF7" />
  </g>
  
  <!-- Lock/security elements -->
  <g class="float-delay-1 fade-in-delay-1" transform="translate(240, 100) scale(0.6)">
    <rect x="-20" y="0" width="40" height="30" rx="4" fill="white" />
    <rect x="-30" y="-15" width="60" height="20" rx="10" fill="none" stroke="white" stroke-width="4" />
    <circle cx="0" cy="15" r="5" fill="#4A6CF7" class="pulse" />
  </g>
  
  <!-- Document/form elements -->
  <g class="float-delay-1 fade-in-delay-1">
    <rect x="140" y="175" width="120" height="70" rx="4" fill="white" />
    <rect x="150" y="185" width="100" height="10" rx="2" fill="#E1E5EB" />
    <rect x="150" y="205" width="100" height="10" rx="2" fill="#E1E5EB" />
    <rect x="150" y="225" width="60" height="10" rx="2" fill="#4A6CF7" class="scale" />
  </g>
  
  <!-- Connection lines -->
  <path d="M200 145 L200 175" stroke="white" stroke-width="2" stroke-dasharray="4 2" class="draw" />
  
  <!-- Shield/security symbol -->
  <g class="float-delay-2 fade-in-delay-2" transform="translate(150, 110) scale(0.5)">
    <path d="M0,0 L30,0 L15,25 Z" fill="white" />
    <path d="M10,10 L20,10 L15,20 Z" fill="#4A6CF7" />
  </g>
  
  <!-- Checkmark/success indicator -->
  <g class="fade-in-delay-2" transform="translate(250, 180) scale(0.5)">
    <circle cx="0" cy="0" r="15" fill="white" />
    <path d="M-7,0 L-2,5 L7,-5" stroke="#4A6CF7" stroke-width="3" fill="none" class="draw" />
  </g>
  
  <!-- Decorative elements -->
  <path d="M110 70 Q 130 50, 150 70" stroke="white" stroke-width="2" fill="none" class="float draw" />
  <path d="M250 70 Q 270 50, 290 70" stroke="white" stroke-width="2" fill="none" class="float-delay-2 draw" />
  
  <!-- Small decorative elements -->
  <circle cx="150" cy="240" r="3" fill="white" class="float fade-in" />
  <circle cx="250" cy="240" r="3" fill="white" class="float-delay-1 fade-in-delay-1" />
  <circle cx="130" cy="200" r="3" fill="white" class="float-delay-2 fade-in-delay-2" />

  <!-- Data points/nodes -->
  <g class="rotate" opacity="0.6">
    <circle cx="160" cy="95" r="2" fill="white" />
    <circle cx="240" cy="160" r="2" fill="white" />
    <circle cx="190" cy="210" r="2" fill="white" />
    <circle cx="130" cy="160" r="2" fill="white" />
  </g>
</svg> 