<svg xmlns="http://www.w3.org/2000/svg" width="280" height="220" viewBox="0 0 400 300" fill="none">
  <style>
    @keyframes float {
      0%, 100% { transform: translateY(0); }
      50% { transform: translateY(-8px); }
    }
    @keyframes pulse {
      0%, 100% { opacity: 0.8; }
      50% { opacity: 1; }
    }
    @keyframes draw {
      to { stroke-dashoffset: 0; }
    }
    @keyframes fadeIn {
      from { opacity: 0; }
      to { opacity: 1; }
    }
    @keyframes rotate {
      from { transform: rotate(0deg); }
      to { transform: rotate(360deg); }
    }
    @keyframes scale {
      0%, 100% { transform: scale(1); }
      50% { transform: scale(1.1); }
    }
    @keyframes typing {
      from { width: 0; }
      to { width: 100%; }
    }
    .float { animation: float 6s ease-in-out infinite; }
    .float-delay-1 { animation: float 6s ease-in-out 0.5s infinite; }
    .float-delay-2 { animation: float 6s ease-in-out 1s infinite; }
    .pulse { animation: pulse 3s ease-in-out infinite; }
    .fade-in { 
      opacity: 0;
      animation: fadeIn 0.8s ease-out forwards;
    }
    .fade-in-delay-1 {
      opacity: 0;
      animation: fadeIn 0.8s ease-out 0.3s forwards;
    }
    .fade-in-delay-2 {
      opacity: 0;
      animation: fadeIn 0.8s ease-out 0.6s forwards;
    }
    .draw { 
      stroke-dasharray: 100;
      stroke-dashoffset: 100;
      animation: draw 1.5s ease-in-out forwards;
    }
    .rotate {
      transform-origin: 200px 150px;
      animation: rotate 20s linear infinite;
    }
    .scale {
      animation: scale 3s ease-in-out infinite;
    }
    .typing {
      overflow: hidden;
      white-space: nowrap;
      animation: typing 2s steps(20, end) forwards;
      animation-delay: 0.5s;
      width: 0;
    }
  </style>
  
  <!-- Background elements -->
  <circle cx="200" cy="150" r="120" fill="rgba(255,255,255,0.1)" class="pulse" />
  <g class="rotate" opacity="0.15">
    <circle cx="200" cy="150" r="100" fill="none" stroke="white" stroke-width="1" />
    <circle cx="200" cy="150" r="80" fill="none" stroke="white" stroke-width="1" />
    <circle cx="200" cy="150" r="60" fill="none" stroke="white" stroke-width="1" />
  </g>
  <circle cx="120" cy="80" r="6" fill="rgba(255,255,255,0.4)" class="float" />
  <circle cx="280" cy="220" r="4" fill="rgba(255,255,255,0.4)" class="float-delay-1" />
  <circle cx="260" cy="90" r="5" fill="rgba(255,255,255,0.4)" class="float-delay-2" />
  
  <!-- User/profile icon with plus sign (new user) -->
  <g class="float fade-in">
    <circle cx="200" cy="110" r="35" fill="white" />
    <circle cx="200" cy="95" r="15" fill="#4A6CF7" />
    <path d="M165 150 C165 120, 235 120, 235 150" fill="#4A6CF7" />
    <!-- Plus sign (new user) -->
    <g class="pulse">
      <rect x="230" y="85" width="20" height="6" rx="3" fill="#4A6CF7" />
      <rect x="237" y="78" width="6" height="20" rx="3" fill="#4A6CF7" />
    </g>
  </g>
  
  <!-- Form elements - registration form -->
  <g class="float-delay-1 fade-in-delay-1">
    <rect x="140" y="175" width="120" height="80" rx="4" fill="white" />
    <rect x="150" y="185" width="100" height="8" rx="2" fill="#E1E5EB" />
    <rect x="150" y="200" width="100" height="8" rx="2" fill="#E1E5EB" />
    <rect x="150" y="215" width="100" height="8" rx="2" fill="#E1E5EB" />
    <rect x="150" y="230" width="60" height="15" rx="2" fill="#4A6CF7" class="scale" />
  </g>
  
  <!-- Connection lines -->
  <path d="M200 145 L200 175" stroke="white" stroke-width="2" stroke-dasharray="4 2" class="draw" />
  
  <!-- Email/send symbol -->
  <g class="float-delay-2 fade-in-delay-2" transform="translate(150, 110) scale(0.5)">
    <rect x="-20" y="-10" width="40" height="30" rx="4" fill="white" />
    <path d="M-20 -10 L0 5 L20 -10" stroke="#4A6CF7" stroke-width="2" fill="none" />
    <line x1="-15" y1="-2" x2="15" y2="-2" stroke="#E1E5EB" stroke-width="2" />
    <line x1="-15" y1="3" x2="15" y2="3" stroke="#E1E5EB" stroke-width="2" />
    <line x1="-15" y1="8" x2="10" y2="8" stroke="#E1E5EB" stroke-width="2" />
  </g>
  
  <!-- Checkmark/success indicator -->
  <g class="fade-in-delay-2" transform="translate(250, 200) scale(0.5)">
    <circle cx="0" cy="0" r="15" fill="white" />
    <path d="M-7,0 L-2,5 L7,-5" stroke="#4A6CF7" stroke-width="3" fill="none" class="draw" />
  </g>
  
  <!-- Decorative elements -->
  <path d="M110 70 Q 130 50, 150 70" stroke="white" stroke-width="2" fill="none" class="float draw" />
  <path d="M250 70 Q 270 50, 290 70" stroke="white" stroke-width="2" fill="none" class="float-delay-2 draw" />
  
  <!-- Small decorative elements -->
  <circle cx="150" cy="240" r="3" fill="white" class="float fade-in" />
  <circle cx="250" cy="240" r="3" fill="white" class="float-delay-1 fade-in-delay-1" />
  <circle cx="130" cy="200" r="3" fill="white" class="float-delay-2 fade-in-delay-2" />
  
  <!-- Data points/nodes -->
  <g class="rotate" opacity="0.6">
    <circle cx="160" cy="95" r="2" fill="white" />
    <circle cx="240" cy="160" r="2" fill="white" />
    <circle cx="190" cy="210" r="2" fill="white" />
    <circle cx="130" cy="160" r="2" fill="white" />
  </g>
  
  <!-- Notification/confirmation -->
  <g class="float-delay-1 fade-in-delay-2" transform="translate(250, 130) scale(0.5)">
    <rect x="-15" y="-15" width="30" height="30" rx="4" fill="white" />
    <rect x="-10" y="-10" width="20" height="20" rx="2" fill="#4A6CF7" opacity="0.2" />
    <path d="M-5 0 L0 5 L5 -5" stroke="#4A6CF7" stroke-width="2" fill="none" class="draw" />
  </g>
</svg> 