<svg version="1.1" id="Layer_1" xmlns="http://www.w3.org/2000/svg" xmlns:xlink="http://www.w3.org/1999/xlink" x="0px" y="0px"
	 width="100%" viewBox="0 0 235 298" enable-background="new 0 0 235 298" xml:space="preserve">
<path fill="#FFFFFE" opacity="1.000000" stroke="none" 
	d="
M124.000000,299.000000 
	C82.666664,299.000000 41.833332,299.000000 1.000000,299.000000 
	C1.000000,199.666672 1.000000,100.333336 1.000000,1.000000 
	C79.333336,1.000000 157.666672,1.000000 236.000000,1.000000 
	C236.000000,100.333336 236.000000,199.666672 236.000000,299.000000 
	C198.833328,299.000000 161.666672,299.000000 124.000000,299.000000 
M29.265640,99.024689 
	C27.407864,100.647789 25.230881,102.024071 23.750334,103.938858 
	C18.688766,110.484962 21.778215,117.911858 30.002687,118.884018 
	C33.447544,119.291206 37.134884,119.544807 40.457493,118.772865 
	C58.685139,114.538101 76.835411,109.969917 95.007515,105.496948 
	C97.028404,104.999512 99.019241,104.379974 101.024017,103.817070 
	C96.345642,106.885475 91.423462,109.272568 86.253105,110.842072 
	C68.186333,116.326378 50.087803,121.726921 31.870407,126.677460 
	C28.019485,127.723946 23.518377,127.266159 19.488964,126.542755 
	C14.444795,125.637169 13.661048,121.151314 13.257535,116.545502 
	C11.283053,119.491089 9.402147,122.275032 8.449239,125.346855 
	C6.139408,132.792877 9.265615,137.028839 17.082203,136.902740 
	C21.851833,136.825790 26.700331,136.304550 31.353531,135.266342 
	C51.523922,130.765961 70.679779,123.294365 89.698227,115.312271 
	C123.310722,101.205002 156.062744,85.358513 188.049316,67.905380 
	C192.647049,65.396675 197.118088,62.655804 202.099365,59.759819 
	C201.023911,59.349201 200.669235,59.070183 200.436340,59.149368 
	C199.344818,59.520496 198.247391,59.912903 197.222549,60.435844 
	C158.389984,80.250999 117.262436,93.829605 75.196571,104.620483 
	C62.912186,107.771721 50.168335,109.477821 37.524937,110.761131 
	C29.185369,111.607605 27.401527,108.408104 29.951777,100.565620 
	C30.101530,100.105103 30.038225,99.575302 30.547256,99.039528 
	C30.807713,98.891022 31.068171,98.742508 31.328629,98.594002 
	C30.870842,98.709732 30.413055,98.825462 29.265640,99.024689 
M119.574455,29.740641 
	C95.580063,26.243507 74.975464,32.324455 59.752407,51.965553 
	C49.088516,65.724327 44.938637,81.484444 48.149014,98.819336 
	C48.336193,99.830025 50.281548,101.388306 51.202103,101.255859 
	C61.190193,99.818764 71.242516,98.565674 81.075928,96.363235 
	C116.093369,88.520180 149.219589,75.239227 181.824005,60.546219 
	C183.341156,59.862526 184.824463,59.099438 186.298569,58.325756 
	C187.729935,57.574512 189.129120,56.761963 190.542435,55.976334 
	C190.351883,55.586807 190.161346,55.197281 189.970795,54.807758 
	C148.305695,69.895660 106.011642,82.288033 61.256321,85.643845 
	C61.151134,84.186157 61.014618,83.060371 61.005177,81.933517 
	C60.996853,80.939056 60.974552,79.902382 61.224182,78.954338 
	C66.116409,60.374710 77.457214,47.478558 96.285072,43.176605 
	C116.163322,38.634644 132.921753,44.998928 145.668106,61.270950 
	C146.643082,62.515606 148.631668,64.016129 149.873337,63.801609 
	C153.346664,63.201519 156.675278,61.763763 160.733719,60.436588 
	C150.946014,44.300747 138.095535,33.939442 119.574455,29.740641 
M136.570496,159.933990 
	C137.286743,158.622940 138.472000,157.371048 138.646057,155.991592 
	C140.228577,143.449814 147.428787,134.086029 155.203384,124.743462 
	C162.869766,115.530975 166.835205,104.565186 167.491547,91.509285 
	C162.942841,94.644402 159.036926,97.119141 155.401337,99.942047 
	C153.795547,101.188889 152.563751,103.033127 151.464905,104.794975 
	C148.401993,109.705879 146.154007,115.293518 142.393341,119.565613 
	C134.623154,128.392471 128.801727,137.959030 126.398407,149.577713 
	C126.120262,150.922348 123.907364,152.801743 122.548103,152.838730 
	C112.393745,153.114960 102.226746,153.075928 92.068840,152.875595 
	C90.861206,152.851791 88.995338,151.490494 88.615501,150.354355 
	C87.153519,145.981384 86.171730,141.447876 84.961266,136.783005 
	C115.487427,122.128860 143.548370,103.607979 170.660904,83.469421 
	C136.031219,100.941200 101.764870,119.124718 63.231659,129.426819 
	C70.787994,137.141113 74.085365,145.999985 76.230988,155.586548 
	C77.715057,162.217316 83.222824,165.955063 90.360062,166.067215 
	C101.185616,166.237381 112.016495,166.049362 122.843147,166.178009 
	C128.175140,166.241364 132.644836,164.658905 136.570496,159.933990 
M158.200348,231.449692 
	C157.828552,232.800446 157.456757,234.151184 157.084961,235.501938 
	C154.475174,227.350693 152.677963,219.292847 150.890091,211.232941 
	C149.736496,206.032349 145.574280,208.496567 142.699829,208.358521 
	C141.886826,208.319489 140.198563,210.981979 140.176453,212.424866 
	C139.977600,225.405975 140.048080,238.391434 140.083908,251.375504 
	C140.086960,252.479614 140.411118,253.582840 140.571991,254.597473 
	C143.110275,254.597473 145.332367,254.597473 148.075958,254.597473 
	C148.075958,246.443192 148.075958,238.695908 148.075958,230.948608 
	C150.349625,237.522202 151.604065,244.190369 153.326126,250.735519 
	C153.753876,252.361206 155.694839,253.588760 156.940247,254.999313 
	C158.038467,253.633850 159.709122,252.424942 160.132980,250.875046 
	C161.725418,245.052231 162.911224,239.118195 164.249390,233.225830 
	C164.713196,233.281708 165.177002,233.337585 165.640808,233.393463 
	C165.640808,240.455338 165.640808,247.517212 165.640808,254.454193 
	C173.632736,255.627914 173.689941,255.585693 173.692841,248.457336 
	C173.697662,236.638428 173.706741,224.819473 173.682022,213.000626 
	C173.677277,210.726395 174.181732,207.859741 170.487183,208.175598 
	C167.551086,208.426636 163.625046,206.380920 162.657852,211.716980 
	C161.503754,218.084244 159.843765,224.359802 158.200348,231.449692 
M45.027081,240.628052 
	C45.027081,245.242477 45.027081,249.856903 45.027081,254.599060 
	C47.990856,254.599060 50.346764,254.599060 52.620949,254.599060 
	C52.620949,238.967712 52.620949,223.751068 52.620949,208.497345 
	C49.976170,208.497345 47.745029,208.497345 44.911163,208.497345 
	C44.911163,215.074249 44.911163,221.303894 44.911163,227.452774 
	C42.234310,227.452774 40.177071,227.452774 37.798843,227.452774 
	C37.798843,222.739014 37.850113,218.423294 37.780586,214.109512 
	C37.735214,211.294342 38.821907,208.063324 33.745846,207.993317 
	C28.823544,207.925415 29.462023,210.867569 29.464375,213.862579 
	C29.473658,225.682907 29.453606,237.503250 29.483719,249.323502 
	C29.488230,251.094070 29.702019,252.864090 29.827732,254.766617 
	C32.581879,254.766617 34.851948,254.766617 37.913986,254.766617 
	C37.913986,248.351227 37.913986,242.162186 37.913986,235.815781 
	C41.477089,236.076828 45.555397,233.894318 45.027081,240.628052 
M77.213074,244.465485 
	C77.213074,247.872147 77.213074,251.278809 77.213074,254.581879 
	C80.315414,254.581879 82.528458,254.581879 85.119537,254.581879 
	C85.119537,250.540237 85.119537,246.928024 85.119537,243.404114 
	C91.595818,241.231674 90.883430,246.414719 91.743462,249.436920 
	C93.527069,255.704712 93.371429,255.749008 100.594299,254.352310 
	C99.877151,251.143005 99.122032,247.947571 98.467072,244.731766 
	C98.242149,243.627441 97.746246,242.070755 98.260330,241.403046 
	C102.745712,235.577332 100.615044,228.877060 100.799866,222.567734 
	C100.968285,216.818268 97.964043,214.213058 92.093285,214.051727 
	C88.438377,213.951294 84.768402,214.197937 81.123993,213.977753 
	C77.989479,213.788391 77.113243,215.070206 77.163376,218.037918 
	C77.306587,226.514542 77.213501,234.995148 77.213074,244.465485 
M181.465561,233.500702 
	C181.465561,240.568344 181.465561,247.636002 181.465561,254.646942 
	C189.837952,254.646942 197.238159,254.646942 204.629532,254.646942 
	C204.629532,252.039597 204.629532,249.816895 204.629532,246.974045 
	C199.543549,246.974045 194.819183,246.974045 190.216095,246.974045 
	C190.216095,243.937881 190.216095,241.543594 190.216095,238.761215 
	C193.602386,238.761215 196.792984,239.448868 199.503601,238.601379 
	C203.654633,237.303543 201.432693,233.918427 201.062668,230.695160 
	C197.259186,230.695160 193.681717,230.695160 190.133789,230.695160 
	C190.133789,227.568695 190.133789,224.985901 190.133789,221.812851 
	C195.179947,221.812851 199.906738,221.812851 204.654327,221.812851 
	C204.654327,218.969620 204.654327,216.736328 204.654327,214.348206 
	C196.909134,214.348206 189.519562,214.348206 181.466415,214.348206 
	C181.466415,220.598099 181.466415,226.549911 181.465561,233.500702 
M94.569206,171.296982 
	C92.573425,171.297241 90.576576,171.255402 88.582069,171.305908 
	C83.307053,171.439529 82.144707,172.889572 82.000160,178.389511 
	C81.874565,183.168228 84.169624,184.940155 88.669685,184.916290 
	C101.142975,184.850143 113.617027,184.933029 126.090401,184.874710 
	C131.435959,184.849731 132.949234,183.235275 132.919693,178.027374 
	C132.889938,172.781647 131.470657,171.338562 125.986031,171.311813 
	C115.841049,171.262344 105.695641,171.297531 94.569206,171.296982 
M108.950836,243.480270 
	C108.950836,247.222244 108.950836,250.964218 108.950836,254.753998 
	C117.021355,254.753998 124.271568,254.753998 131.686890,254.753998 
	C131.686890,252.156189 131.686890,249.824310 131.686890,247.050964 
	C126.657593,247.050964 122.065338,247.050964 117.378098,247.050964 
	C117.378098,244.074875 117.378098,241.563553 117.378098,239.093216 
	C130.151535,238.109680 130.151535,238.109680 127.864647,230.735840 
	C124.442734,230.735840 120.861954,230.735840 117.216812,230.735840 
	C117.216812,227.642456 117.216812,225.056839 117.216812,221.899414 
	C122.189903,221.899414 126.918129,221.899414 131.847672,221.899414 
	C131.847672,219.084198 131.847672,216.848618 131.847672,214.364807 
	C124.190178,214.364807 116.824394,214.364807 108.950790,214.364807 
	C108.950790,223.952545 108.950790,233.219940 108.950836,243.480270 
M87.367691,195.013977 
	C87.280518,202.538101 87.833405,203.137131 95.015015,203.145325 
	C103.985107,203.155548 112.958199,203.007721 121.924088,203.201508 
	C126.505287,203.300522 127.696358,200.825806 127.643768,196.986282 
	C127.590843,193.122604 126.645836,190.065567 121.815804,190.104385 
	C112.347984,190.180466 102.878670,190.177032 93.410919,190.096390 
	C90.352478,190.070358 88.244171,191.056122 87.367691,195.013977 
M69.070915,230.501877 
	C69.070915,225.105484 69.070915,219.709106 69.070915,214.417084 
	C65.977089,214.417084 63.749416,214.417084 61.506149,214.417084 
	C61.506149,228.104935 61.506149,241.408142 61.506149,254.649765 
	C64.192986,254.649765 66.424461,254.649765 69.070976,254.649765 
	C69.070976,246.699875 69.070976,239.100616 69.070915,230.501877 
M205.203186,282.472229 
	C208.087997,283.619324 208.843506,281.886047 208.891205,279.576202 
	C208.980560,275.247559 209.079895,270.906036 208.819366,266.591309 
	C208.741730,265.305481 207.478058,264.091217 206.757797,262.844177 
	C206.219315,263.046509 205.680817,263.248810 205.142334,263.451141 
	C205.142334,266.291229 205.142334,269.131317 205.142334,272.995819 
	C202.429306,268.943298 200.373917,265.873138 198.318527,262.802979 
	C197.609879,263.016449 196.901230,263.229950 196.192581,263.443420 
	C196.192581,269.463196 196.141876,275.484253 196.291687,281.500305 
	C196.303299,281.966614 197.856583,282.881042 198.450851,282.715698 
	C199.105255,282.533661 199.835464,281.376740 199.907349,280.587524 
	C200.105087,278.416809 199.975616,276.216309 199.975616,274.027588 
	C200.282333,274.000671 200.589066,273.973724 200.895782,273.946808 
	C202.149185,276.609863 203.402588,279.272949 205.203186,282.472229 
M40.945110,280.558167 
	C41.132683,279.527008 41.320255,278.495880 41.590416,277.010712 
	C45.167992,282.654297 45.167992,282.654297 47.996857,282.003967 
	C47.996857,277.178131 48.179848,272.270721 47.945526,267.383331 
	C47.709972,262.470215 43.856255,263.208649 40.550091,262.992706 
	C37.064114,262.765015 36.893017,264.794617 36.954147,267.389771 
	C37.055847,271.707397 36.786781,276.042236 37.064957,280.344513 
	C37.275688,283.603668 38.833698,283.945374 40.945110,280.558167 
M148.508743,280.095001 
	C149.601898,281.123474 150.695068,282.151947 151.788239,283.180420 
	C152.972977,276.775330 153.027069,271.150970 152.910202,265.530151 
	C152.894089,264.755402 152.030472,263.998260 151.559219,263.232971 
	C150.754974,263.915497 149.371689,264.513397 149.257187,265.296722 
	C148.938477,267.477234 149.146500,269.734711 149.146500,272.938080 
	C146.723770,268.867584 144.880295,265.770325 143.036819,262.673065 
	C142.519806,262.931274 142.002792,263.189484 141.485779,263.447723 
	C141.485779,269.859589 141.485779,276.271454 141.485779,282.683319 
	C142.076172,282.850616 142.666550,283.017944 143.256943,283.185272 
	C144.099335,280.700378 144.941742,278.215485 145.907639,275.366333 
	C146.757492,276.899445 147.458878,278.164673 148.508743,280.095001 
M57.069519,278.202148 
	C56.514256,284.506012 61.172981,282.967163 64.510468,282.904694 
	C65.971283,282.877350 67.410912,281.718689 68.860168,281.073761 
	C67.615105,280.388428 66.366821,279.708893 65.125977,279.015991 
	C64.105171,278.445984 63.093201,277.860138 62.077316,277.281311 
	C62.918297,276.528015 63.751617,275.765961 64.602554,275.024078 
	C65.363136,274.360962 66.143158,273.720123 66.914597,273.069458 
	C65.994820,272.382843 65.032707,271.744995 64.167999,270.994873 
	C63.413578,270.340424 62.768944,269.559418 62.075790,268.834320 
	C62.901875,268.236725 63.658897,267.469818 64.576111,267.095673 
	C65.297333,266.801453 66.329933,267.230255 67.016624,266.902679 
	C67.757607,266.549225 68.732788,265.687683 68.730133,265.051422 
	C68.727394,264.396820 67.782005,263.375793 67.053551,263.152222 
	C60.226498,261.056763 57.072792,263.353699 57.068951,270.282776 
	C57.067657,272.611542 57.068935,274.940338 57.069519,278.202148 
M131.678192,282.195129 
	C130.464996,276.916809 129.383270,271.602234 127.943710,266.386383 
	C127.595421,265.124451 126.065491,264.188629 125.078957,263.102844 
	C123.999870,264.117676 122.345001,264.945862 121.944695,266.180725 
	C120.472862,270.721100 119.331879,275.377258 118.286186,280.039124 
	C118.104996,280.846924 118.989891,281.893860 119.382362,282.830322 
	C120.236771,282.289520 121.453865,281.949341 121.883102,281.173401 
	C123.790993,277.724396 125.632874,278.391602 127.883904,280.819824 
	C128.701706,281.701996 130.032562,282.108582 131.678192,282.195129 
M228.762665,273.033417 
	C227.338913,272.709564 225.915146,272.385712 224.064484,271.964752 
	C224.296188,274.775909 224.457947,276.738617 224.658966,279.177612 
	C221.472473,276.841431 221.066895,271.775452 223.231201,267.052277 
	C224.834991,268.095886 226.413635,269.123138 228.469025,270.460632 
	C229.459976,266.054474 228.746460,263.519196 224.767136,263.096436 
	C221.114868,262.708374 217.957565,263.299408 217.987442,268.084167 
	C218.009277,271.579529 217.533020,275.166901 218.196945,278.532074 
	C218.531128,280.225983 220.715439,282.473694 222.397583,282.813080 
	C227.765152,283.895935 229.101303,281.829681 228.762665,273.033417 
M78.561234,264.233765 
	C78.385139,268.528229 78.455521,272.850922 77.968254,277.109772 
	C77.405907,282.024841 79.374023,283.907867 84.056137,282.964478 
	C86.032951,282.566193 87.907211,281.658844 89.828079,280.982880 
	C88.050331,280.320007 86.226189,279.756104 84.513985,278.953430 
	C83.628525,278.538300 82.941650,277.699615 82.165039,277.052307 
	C82.920494,276.387329 83.614639,275.629425 84.446640,275.080505 
	C85.533997,274.363068 86.730400,273.810944 87.879898,273.187683 
	C86.661102,272.456390 85.381500,271.807220 84.244331,270.965637 
	C83.450562,270.378174 82.851830,269.527191 82.165985,268.793884 
	C83.004616,268.209381 83.772743,267.322601 84.697395,267.106903 
	C86.331764,266.725739 88.061432,266.753204 90.997269,266.503754 
	C86.992966,261.375488 82.926025,263.230408 78.561234,264.233765 
M169.945816,268.671082 
	C170.805435,269.395935 171.665039,270.120819 172.524658,270.845673 
	C172.993713,269.909546 173.881073,268.962006 173.855789,268.039398 
	C173.769440,264.886108 171.887894,263.258423 168.770599,263.057587 
	C165.673691,262.858093 162.714401,263.557465 162.304901,267.026672 
	C161.820984,271.126373 161.642517,275.399261 162.259781,279.455841 
	C162.972458,284.139526 167.277924,283.438324 170.282196,282.707214 
	C171.805634,282.336517 172.904648,279.601593 173.803665,277.745697 
	C174.013580,277.312347 172.711334,276.013367 171.914917,275.335907 
	C171.751770,275.197083 170.680481,275.990204 170.131393,276.471924 
	C169.272827,277.225128 168.502670,278.079102 167.695068,278.890381 
	C167.134933,277.688995 166.274857,276.532562 166.086502,275.275452 
	C165.818665,273.488007 165.870499,271.603882 166.104858,269.802582 
	C166.379898,267.688599 167.341568,266.291412 169.945816,268.671082 
M22.355745,260.937408 
	C20.187513,261.640167 16.386667,259.112122 16.120502,263.511749 
	C15.780685,269.128815 15.960469,274.783783 16.112858,280.417114 
	C16.135382,281.249786 17.237968,282.053253 17.840853,282.870239 
	C18.557692,282.002899 19.726955,281.214600 19.895138,280.251434 
	C20.223261,278.372345 19.991369,276.395416 19.991369,275.411407 
	C22.682394,273.883911 24.457811,272.876160 26.233231,271.868408 
	C26.016144,271.399536 25.799059,270.930664 25.581972,270.461792 
	C23.860006,270.151581 22.138041,269.841370 20.367702,269.522461 
	C20.367702,267.683960 20.367702,266.124786 20.367702,264.585297 
	C22.788723,264.113495 24.871849,263.707550 26.954975,263.301575 
	C26.967010,262.774353 26.979046,262.247101 26.991081,261.719849 
	C25.747576,261.459320 24.504072,261.198761 22.355745,260.937408 
M105.452255,279.004303 
	C104.628044,277.872803 103.237114,276.808990 103.092216,275.596313 
	C102.741074,272.657623 103.175064,269.628571 102.872948,266.678925 
	C102.736572,265.347412 101.600151,264.118347 100.917450,262.842804 
	C100.425552,263.035187 99.933662,263.227570 99.441765,263.419952 
	C99.441765,269.837341 99.441765,276.254700 99.441765,282.991577 
	C102.035248,282.991577 104.194466,283.158783 106.305534,282.912720 
	C107.202866,282.808167 107.999306,281.837952 108.841606,281.261139 
	C107.998375,280.518188 107.155151,279.775238 105.452255,279.004303 
M187.003052,272.518494 
	C186.995346,270.201965 187.152740,267.866791 186.894577,265.578491 
	C186.798111,264.723450 185.732681,263.977692 185.109070,263.182098 
	C184.420242,263.910919 183.160263,264.620270 183.134659,265.371704 
	C182.960159,270.495056 182.961548,275.630188 183.141129,280.753265 
	C183.166656,281.481659 184.463898,282.165436 185.172546,282.869873 
	C185.775574,282.057861 186.804062,281.292480 186.899109,280.424835 
	C187.149979,278.134979 186.995911,275.800751 187.003052,272.518494 
M192.542465,54.474785 
	C192.788284,54.531277 193.034088,54.587765 193.279907,54.644249 
	C193.123322,54.501247 192.966736,54.358246 192.542465,54.474785 
z"/>
<path fill="#D3D4D6" opacity="1.000000" stroke="none" 
	d="
M119.992157,29.834827 
	C138.095535,33.939442 150.946014,44.300747 160.733719,60.436588 
	C156.675278,61.763763 153.346664,63.201519 149.873337,63.801609 
	C148.631668,64.016129 146.643082,62.515606 145.668106,61.270950 
	C132.921753,44.998928 116.163322,38.634644 96.285072,43.176605 
	C77.457214,47.478558 66.116409,60.374710 61.224182,78.954338 
	C60.974552,79.902382 60.996853,80.939056 61.005177,81.933517 
	C61.014618,83.060371 61.151134,84.186157 61.256321,85.643845 
	C106.011642,82.288033 148.305695,69.895660 189.970795,54.807758 
	C190.161346,55.197281 190.351883,55.586807 190.542435,55.976334 
	C189.129120,56.761963 187.729935,57.574512 186.298569,58.325756 
	C184.824463,59.099438 183.341156,59.862526 181.824005,60.546219 
	C149.219589,75.239227 116.093369,88.520180 81.075928,96.363235 
	C71.242516,98.565674 61.190193,99.818764 51.202103,101.255859 
	C50.281548,101.388306 48.336193,99.830025 48.149014,98.819336 
	C44.938637,81.484444 49.088516,65.724327 59.752407,51.965553 
	C74.975464,32.324455 95.580063,26.243507 119.992157,29.834827 
z"/>
<path fill="#FF9350" opacity="1.000000" stroke="none" 
	d="
M136.330811,160.217804 
	C132.644836,164.658905 128.175140,166.241364 122.843147,166.178009 
	C112.016495,166.049362 101.185616,166.237381 90.360062,166.067215 
	C83.222824,165.955063 77.715057,162.217316 76.230988,155.586548 
	C74.085365,145.999985 70.787994,137.141113 63.231659,129.426819 
	C101.764870,119.124718 136.031219,100.941200 170.660904,83.469421 
	C143.548370,103.607979 115.487427,122.128860 84.961266,136.783005 
	C86.171730,141.447876 87.153519,145.981384 88.615501,150.354355 
	C88.995338,151.490494 90.861206,152.851791 92.068840,152.875595 
	C102.226746,153.075928 112.393745,153.114960 122.548103,152.838730 
	C123.907364,152.801743 126.120262,150.922348 126.398407,149.577713 
	C128.801727,137.959030 134.623154,128.392471 142.393341,119.565613 
	C146.154007,115.293518 148.401993,109.705879 151.464905,104.794975 
	C152.563751,103.033127 153.795547,101.188889 155.401337,99.942047 
	C159.036926,97.119141 162.942841,94.644402 167.491547,91.509285 
	C166.835205,104.565186 162.869766,115.530975 155.203384,124.743462 
	C147.428787,134.086029 140.228577,143.449814 138.646057,155.991592 
	C138.472000,157.371048 137.286743,158.622940 136.330811,160.217804 
z"/>
<path fill="#D4D5D6" opacity="1.000000" stroke="none" 
	d="
M30.074070,99.077744 
	C30.038225,99.575302 30.101530,100.105103 29.951777,100.565620 
	C27.401527,108.408104 29.185369,111.607605 37.524937,110.761131 
	C50.168335,109.477821 62.912186,107.771721 75.196571,104.620483 
	C117.262436,93.829605 158.389984,80.250999 197.222549,60.435844 
	C198.247391,59.912903 199.344818,59.520496 200.436340,59.149368 
	C200.669235,59.070183 201.023911,59.349201 202.099365,59.759819 
	C197.118088,62.655804 192.647049,65.396675 188.049316,67.905380 
	C156.062744,85.358513 123.310722,101.205002 89.698227,115.312271 
	C70.679779,123.294365 51.523922,130.765961 31.353531,135.266342 
	C26.700331,136.304550 21.851833,136.825790 17.082203,136.902740 
	C9.265615,137.028839 6.139408,132.792877 8.449239,125.346855 
	C9.402147,122.275032 11.283053,119.491089 13.257535,116.545502 
	C13.661048,121.151314 14.444795,125.637169 19.488964,126.542755 
	C23.518377,127.266159 28.019485,127.723946 31.870407,126.677460 
	C50.087803,121.726921 68.186333,116.326378 86.253105,110.842072 
	C91.423462,109.272568 96.345642,106.885475 101.024017,103.817070 
	C99.019241,104.379974 97.028404,104.999512 95.007515,105.496948 
	C76.835411,109.969917 58.685139,114.538101 40.457493,118.772865 
	C37.134884,119.544807 33.447544,119.291206 30.002687,118.884018 
	C21.778215,117.911858 18.688766,110.484962 23.750334,103.938858 
	C25.230881,102.024071 27.407864,100.647789 29.639177,99.017929 
	C30.012714,99.011162 30.074068,99.077744 30.074070,99.077744 
z"/>
<path fill="#FF9655" opacity="1.000000" stroke="none" 
	d="
M158.301636,231.062393 
	C159.843765,224.359802 161.503754,218.084244 162.657852,211.716980 
	C163.625046,206.380920 167.551086,208.426636 170.487183,208.175598 
	C174.181732,207.859741 173.677277,210.726395 173.682022,213.000626 
	C173.706741,224.819473 173.697662,236.638428 173.692841,248.457336 
	C173.689941,255.585693 173.632736,255.627914 165.640808,254.454193 
	C165.640808,247.517212 165.640808,240.455338 165.640808,233.393463 
	C165.177002,233.337585 164.713196,233.281708 164.249390,233.225830 
	C162.911224,239.118195 161.725418,245.052231 160.132980,250.875046 
	C159.709122,252.424942 158.038467,253.633850 156.940247,254.999313 
	C155.694839,253.588760 153.753876,252.361206 153.326126,250.735519 
	C151.604065,244.190369 150.349625,237.522202 148.075958,230.948608 
	C148.075958,238.695908 148.075958,246.443192 148.075958,254.597473 
	C145.332367,254.597473 143.110275,254.597473 140.571991,254.597473 
	C140.411118,253.582840 140.086960,252.479614 140.083908,251.375504 
	C140.048080,238.391434 139.977600,225.405975 140.176453,212.424866 
	C140.198563,210.981979 141.886826,208.319489 142.699829,208.358521 
	C145.574280,208.496567 149.736496,206.032349 150.890091,211.232941 
	C152.677963,219.292847 154.475174,227.350693 157.084961,235.501938 
	C157.456757,234.151184 157.828552,232.800446 158.301636,231.062393 
z"/>
<path fill="#FF9452" opacity="1.000000" stroke="none" 
	d="
M45.026749,240.145645 
	C45.555397,233.894318 41.477089,236.076828 37.913986,235.815781 
	C37.913986,242.162186 37.913986,248.351227 37.913986,254.766617 
	C34.851948,254.766617 32.581879,254.766617 29.827732,254.766617 
	C29.702019,252.864090 29.488230,251.094070 29.483719,249.323502 
	C29.453606,237.503250 29.473658,225.682907 29.464375,213.862579 
	C29.462023,210.867569 28.823544,207.925415 33.745846,207.993317 
	C38.821907,208.063324 37.735214,211.294342 37.780586,214.109512 
	C37.850113,218.423294 37.798843,222.739014 37.798843,227.452774 
	C40.177071,227.452774 42.234310,227.452774 44.911163,227.452774 
	C44.911163,221.303894 44.911163,215.074249 44.911163,208.497345 
	C47.745029,208.497345 49.976170,208.497345 52.620949,208.497345 
	C52.620949,223.751068 52.620949,238.967712 52.620949,254.599060 
	C50.346764,254.599060 47.990856,254.599060 45.027081,254.599060 
	C45.027081,249.856903 45.027081,245.242477 45.026749,240.145645 
z"/>
<path fill="#FF9655" opacity="1.000000" stroke="none" 
	d="
M77.213219,243.969849 
	C77.213501,234.995148 77.306587,226.514542 77.163376,218.037918 
	C77.113243,215.070206 77.989479,213.788391 81.123993,213.977753 
	C84.768402,214.197937 88.438377,213.951294 92.093285,214.051727 
	C97.964043,214.213058 100.968285,216.818268 100.799866,222.567734 
	C100.615044,228.877060 102.745712,235.577332 98.260330,241.403046 
	C97.746246,242.070755 98.242149,243.627441 98.467072,244.731766 
	C99.122032,247.947571 99.877151,251.143005 100.594299,254.352310 
	C93.371429,255.749008 93.527069,255.704712 91.743462,249.436920 
	C90.883430,246.414719 91.595818,241.231674 85.119537,243.404114 
	C85.119537,246.928024 85.119537,250.540237 85.119537,254.581879 
	C82.528458,254.581879 80.315414,254.581879 77.213074,254.581879 
	C77.213074,251.278809 77.213074,247.872147 77.213219,243.969849 
M92.643173,233.943512 
	C92.783920,232.137024 93.033997,230.331284 93.046181,228.523941 
	C93.094818,221.312180 92.609245,220.953262 85.340576,222.548157 
	C85.340576,226.598831 85.340576,230.659744 85.340576,235.156998 
	C87.797844,234.949921 89.903465,234.772461 92.643173,233.943512 
z"/>
<path fill="#FF9553" opacity="1.000000" stroke="none" 
	d="
M181.465988,233.001221 
	C181.466415,226.549911 181.466415,220.598099 181.466415,214.348206 
	C189.519562,214.348206 196.909134,214.348206 204.654327,214.348206 
	C204.654327,216.736328 204.654327,218.969620 204.654327,221.812851 
	C199.906738,221.812851 195.179947,221.812851 190.133789,221.812851 
	C190.133789,224.985901 190.133789,227.568695 190.133789,230.695160 
	C193.681717,230.695160 197.259186,230.695160 201.062668,230.695160 
	C201.432693,233.918427 203.654633,237.303543 199.503601,238.601379 
	C196.792984,239.448868 193.602386,238.761215 190.216095,238.761215 
	C190.216095,241.543594 190.216095,243.937881 190.216095,246.974045 
	C194.819183,246.974045 199.543549,246.974045 204.629532,246.974045 
	C204.629532,249.816895 204.629532,252.039597 204.629532,254.646942 
	C197.238159,254.646942 189.837952,254.646942 181.465561,254.646942 
	C181.465561,247.636002 181.465561,240.568344 181.465988,233.001221 
z"/>
<path fill="#FF9757" opacity="1.000000" stroke="none" 
	d="
M95.059814,171.297211 
	C105.695641,171.297531 115.841049,171.262344 125.986031,171.311813 
	C131.470657,171.338562 132.889938,172.781647 132.919693,178.027374 
	C132.949234,183.235275 131.435959,184.849731 126.090401,184.874710 
	C113.617027,184.933029 101.142975,184.850143 88.669685,184.916290 
	C84.169624,184.940155 81.874565,183.168228 82.000160,178.389511 
	C82.144707,172.889572 83.307053,171.439529 88.582069,171.305908 
	C90.576576,171.255402 92.573425,171.297241 95.059814,171.297211 
z"/>
<path fill="#FF9451" opacity="1.000000" stroke="none" 
	d="
M108.950813,242.983810 
	C108.950790,233.219940 108.950790,223.952545 108.950790,214.364807 
	C116.824394,214.364807 124.190178,214.364807 131.847672,214.364807 
	C131.847672,216.848618 131.847672,219.084198 131.847672,221.899414 
	C126.918129,221.899414 122.189903,221.899414 117.216812,221.899414 
	C117.216812,225.056839 117.216812,227.642456 117.216812,230.735840 
	C120.861954,230.735840 124.442734,230.735840 127.864647,230.735840 
	C130.151535,238.109680 130.151535,238.109680 117.378098,239.093216 
	C117.378098,241.563553 117.378098,244.074875 117.378098,247.050964 
	C122.065338,247.050964 126.657593,247.050964 131.686890,247.050964 
	C131.686890,249.824310 131.686890,252.156189 131.686890,254.753998 
	C124.271568,254.753998 117.021355,254.753998 108.950836,254.753998 
	C108.950836,250.964218 108.950836,247.222244 108.950813,242.983810 
z"/>
<path fill="#FF9451" opacity="1.000000" stroke="none" 
	d="
M87.456818,194.617432 
	C88.244171,191.056122 90.352478,190.070358 93.410919,190.096390 
	C102.878670,190.177032 112.347984,190.180466 121.815804,190.104385 
	C126.645836,190.065567 127.590843,193.122604 127.643768,196.986282 
	C127.696358,200.825806 126.505287,203.300522 121.924088,203.201508 
	C112.958199,203.007721 103.985107,203.155548 95.015015,203.145325 
	C87.833405,203.137131 87.280518,202.538101 87.456818,194.617432 
z"/>
<path fill="#FF9451" opacity="1.000000" stroke="none" 
	d="
M69.070946,231.001617 
	C69.070976,239.100616 69.070976,246.699875 69.070976,254.649765 
	C66.424461,254.649765 64.192986,254.649765 61.506149,254.649765 
	C61.506149,241.408142 61.506149,228.104935 61.506149,214.417084 
	C63.749416,214.417084 65.977089,214.417084 69.070915,214.417084 
	C69.070915,219.709106 69.070915,225.105484 69.070946,231.001617 
z"/>
<path fill="#D5D6D8" opacity="1.000000" stroke="none" 
	d="
M204.929596,282.204102 
	C203.402588,279.272949 202.149185,276.609863 200.895782,273.946808 
	C200.589066,273.973724 200.282333,274.000671 199.975616,274.027588 
	C199.975616,276.216309 200.105087,278.416809 199.907349,280.587524 
	C199.835464,281.376740 199.105255,282.533661 198.450851,282.715698 
	C197.856583,282.881042 196.303299,281.966614 196.291687,281.500305 
	C196.141876,275.484253 196.192581,269.463196 196.192581,263.443420 
	C196.901230,263.229950 197.609879,263.016449 198.318527,262.802979 
	C200.373917,265.873138 202.429306,268.943298 205.142334,272.995819 
	C205.142334,269.131317 205.142334,266.291229 205.142334,263.451141 
	C205.680817,263.248810 206.219315,263.046509 206.757797,262.844177 
	C207.478058,264.091217 208.741730,265.305481 208.819366,266.591309 
	C209.079895,270.906036 208.980560,275.247559 208.891205,279.576202 
	C208.843506,281.886047 208.087997,283.619324 204.929596,282.204102 
z"/>
<path fill="#D7D8D9" opacity="1.000000" stroke="none" 
	d="
M40.912560,280.951416 
	C38.833698,283.945374 37.275688,283.603668 37.064957,280.344513 
	C36.786781,276.042236 37.055847,271.707397 36.954147,267.389771 
	C36.893017,264.794617 37.064114,262.765015 40.550091,262.992706 
	C43.856255,263.208649 47.709972,262.470215 47.945526,267.383331 
	C48.179848,272.270721 47.996857,277.178131 47.996857,282.003967 
	C45.167992,282.654297 45.167992,282.654297 41.590416,277.010712 
	C41.320255,278.495880 41.132683,279.527008 40.912560,280.951416 
z"/>
<path fill="#D4D5D7" opacity="1.000000" stroke="none" 
	d="
M148.334503,279.762451 
	C147.458878,278.164673 146.757492,276.899445 145.907639,275.366333 
	C144.941742,278.215485 144.099335,280.700378 143.256943,283.185272 
	C142.666550,283.017944 142.076172,282.850616 141.485779,282.683319 
	C141.485779,276.271454 141.485779,269.859589 141.485779,263.447723 
	C142.002792,263.189484 142.519806,262.931274 143.036819,262.673065 
	C144.880295,265.770325 146.723770,268.867584 149.146500,272.938080 
	C149.146500,269.734711 148.938477,267.477234 149.257187,265.296722 
	C149.371689,264.513397 150.754974,263.915497 151.559219,263.232971 
	C152.030472,263.998260 152.894089,264.755402 152.910202,265.530151 
	C153.027069,271.150970 152.972977,276.775330 151.788239,283.180420 
	C150.695068,282.151947 149.601898,281.123474 148.334503,279.762451 
z"/>
<path fill="#D6D7D9" opacity="1.000000" stroke="none" 
	d="
M57.069279,277.735626 
	C57.068935,274.940338 57.067657,272.611542 57.068951,270.282776 
	C57.072792,263.353699 60.226498,261.056763 67.053551,263.152222 
	C67.782005,263.375793 68.727394,264.396820 68.730133,265.051422 
	C68.732788,265.687683 67.757607,266.549225 67.016624,266.902679 
	C66.329933,267.230255 65.297333,266.801453 64.576111,267.095673 
	C63.658897,267.469818 62.901875,268.236725 62.075790,268.834320 
	C62.768944,269.559418 63.413578,270.340424 64.167999,270.994873 
	C65.032707,271.744995 65.994820,272.382843 66.914597,273.069458 
	C66.143158,273.720123 65.363136,274.360962 64.602554,275.024078 
	C63.751617,275.765961 62.918297,276.528015 62.077316,277.281311 
	C63.093201,277.860138 64.105171,278.445984 65.125977,279.015991 
	C66.366821,279.708893 67.615105,280.388428 68.860168,281.073761 
	C67.410912,281.718689 65.971283,282.877350 64.510468,282.904694 
	C61.172981,282.967163 56.514256,284.506012 57.069279,277.735626 
z"/>
<path fill="#D5D6D8" opacity="1.000000" stroke="none" 
	d="
M131.403763,282.463623 
	C130.032562,282.108582 128.701706,281.701996 127.883904,280.819824 
	C125.632874,278.391602 123.790993,277.724396 121.883102,281.173401 
	C121.453865,281.949341 120.236771,282.289520 119.382370,282.830322 
	C118.989891,281.893860 118.104996,280.846924 118.286186,280.039124 
	C119.331879,275.377258 120.472862,270.721100 121.944695,266.180725 
	C122.345001,264.945862 123.999870,264.117676 125.078949,263.102844 
	C126.065491,264.188629 127.595421,265.124451 127.943710,266.386383 
	C129.383270,271.602234 130.464996,276.916809 131.403763,282.463623 
z"/>
<path fill="#D5D6D8" opacity="1.000000" stroke="none" 
	d="
M228.859406,273.446198 
	C229.101303,281.829681 227.765152,283.895935 222.397583,282.813080 
	C220.715439,282.473694 218.531128,280.225983 218.196945,278.532074 
	C217.533020,275.166901 218.009277,271.579529 217.987442,268.084167 
	C217.957565,263.299408 221.114868,262.708374 224.767136,263.096436 
	C228.746460,263.519196 229.459976,266.054474 228.469025,270.460632 
	C226.413635,269.123138 224.834991,268.095886 223.231201,267.052277 
	C221.066895,271.775452 221.472473,276.841431 224.658966,279.177612 
	C224.457947,276.738617 224.296188,274.775909 224.064484,271.964752 
	C225.915146,272.385712 227.338913,272.709564 228.859406,273.446198 
z"/>
<path fill="#D7D8D9" opacity="1.000000" stroke="none" 
	d="
M78.872513,263.914490 
	C82.926025,263.230408 86.992966,261.375488 90.997269,266.503754 
	C88.061432,266.753204 86.331764,266.725739 84.697395,267.106903 
	C83.772743,267.322601 83.004616,268.209381 82.165985,268.793884 
	C82.851830,269.527191 83.450562,270.378174 84.244331,270.965637 
	C85.381500,271.807220 86.661102,272.456390 87.879898,273.187683 
	C86.730400,273.810944 85.533997,274.363068 84.446640,275.080505 
	C83.614639,275.629425 82.920494,276.387329 82.165039,277.052307 
	C82.941650,277.699615 83.628525,278.538300 84.513985,278.953430 
	C86.226189,279.756104 88.050331,280.320007 89.828079,280.982880 
	C87.907211,281.658844 86.032951,282.566193 84.056137,282.964478 
	C79.374023,283.907867 77.405907,282.024841 77.968254,277.109772 
	C78.455521,272.850922 78.385139,268.528229 78.872513,263.914490 
z"/>
<path fill="#D7D8D9" opacity="1.000000" stroke="none" 
	d="
M169.831360,268.296387 
	C167.341568,266.291412 166.379898,267.688599 166.104858,269.802582 
	C165.870499,271.603882 165.818665,273.488007 166.086502,275.275452 
	C166.274857,276.532562 167.134933,277.688995 167.695068,278.890381 
	C168.502670,278.079102 169.272827,277.225128 170.131393,276.471924 
	C170.680481,275.990204 171.751770,275.197083 171.914917,275.335907 
	C172.711334,276.013367 174.013580,277.312347 173.803665,277.745697 
	C172.904648,279.601593 171.805634,282.336517 170.282196,282.707214 
	C167.277924,283.438324 162.972458,284.139526 162.259781,279.455841 
	C161.642517,275.399261 161.820984,271.126373 162.304901,267.026672 
	C162.714401,263.557465 165.673691,262.858093 168.770599,263.057587 
	C171.887894,263.258423 173.769440,264.886108 173.855789,268.039398 
	C173.881073,268.962006 172.993713,269.909546 172.524658,270.845673 
	C171.665039,270.120819 170.805435,269.395935 169.831360,268.296387 
z"/>
<path fill="#D4D5D7" opacity="1.000000" stroke="none" 
	d="
M22.808155,260.937805 
	C24.504072,261.198761 25.747576,261.459320 26.991081,261.719849 
	C26.979046,262.247101 26.967010,262.774353 26.954975,263.301575 
	C24.871849,263.707550 22.788723,264.113495 20.367702,264.585297 
	C20.367702,266.124786 20.367702,267.683960 20.367702,269.522461 
	C22.138041,269.841370 23.860006,270.151581 25.581972,270.461792 
	C25.799059,270.930664 26.016144,271.399536 26.233231,271.868408 
	C24.457811,272.876160 22.682394,273.883911 19.991369,275.411407 
	C19.991369,276.395416 20.223261,278.372345 19.895138,280.251434 
	C19.726955,281.214600 18.557692,282.002899 17.840855,282.870239 
	C17.237968,282.053253 16.135382,281.249786 16.112858,280.417114 
	C15.960469,274.783783 15.780685,269.128815 16.120502,263.511749 
	C16.386667,259.112122 20.187513,261.640167 22.808155,260.937805 
z"/>
<path fill="#D5D6D8" opacity="1.000000" stroke="none" 
	d="
M105.882088,279.018311 
	C107.155151,279.775238 107.998375,280.518188 108.841606,281.261139 
	C107.999306,281.837952 107.202866,282.808167 106.305534,282.912720 
	C104.194466,283.158783 102.035248,282.991577 99.441765,282.991577 
	C99.441765,276.254700 99.441765,269.837341 99.441765,263.419952 
	C99.933662,263.227570 100.425552,263.035187 100.917450,262.842804 
	C101.600151,264.118347 102.736572,265.347412 102.872948,266.678925 
	C103.175064,269.628571 102.741074,272.657623 103.092216,275.596313 
	C103.237114,276.808990 104.628044,277.872803 105.882088,279.018311 
z"/>
<path fill="#D4D5D7" opacity="1.000000" stroke="none" 
	d="
M187.003052,273.001343 
	C186.995911,275.800751 187.149979,278.134979 186.899109,280.424835 
	C186.804062,281.292480 185.775574,282.057861 185.172546,282.869873 
	C184.463898,282.165436 183.166656,281.481659 183.141129,280.753265 
	C182.961548,275.630188 182.960159,270.495056 183.134659,265.371704 
	C183.160263,264.620270 184.420242,263.910919 185.109070,263.182098 
	C185.732681,263.977692 186.798111,264.723450 186.894577,265.578491 
	C187.152740,267.866791 186.995346,270.201965 187.003052,273.001343 
z"/>
<path fill="#D4D5D6" opacity="1.000000" stroke="none" 
	d="
M29.983994,98.976181 
	C30.413055,98.825462 30.870842,98.709732 31.328629,98.593994 
	C31.068171,98.742508 30.807713,98.891022 30.310661,99.058640 
	C30.074068,99.077744 30.012714,99.011162 29.983994,98.976181 
z"/>
<path fill="#D3D4D6" opacity="1.000000" stroke="none" 
	d="
M192.676300,54.345016 
	C192.966736,54.358246 193.123322,54.501247 193.279907,54.644249 
	C193.034088,54.587765 192.788284,54.531277 192.676300,54.345016 
z"/>
<path fill="#FFFFFE" opacity="1.000000" stroke="none" 
	d="
M92.326134,234.269257 
	C89.903465,234.772461 87.797844,234.949921 85.340576,235.156998 
	C85.340576,230.659744 85.340576,226.598831 85.340576,222.548157 
	C92.609245,220.953262 93.094818,221.312180 93.046181,228.523941 
	C93.033997,230.331284 92.783920,232.137024 92.326134,234.269257 
z"/>
</svg>